Simulation
nRows=46
nColumns=15
endheader
time  TH_x TH_y TH_z SC_y  SC_z  SC_x  AC_y  AC_z  AC_x  GH_y  GH_z  GH_yy  EL_x  PS_y
1.5899999999999999  0.000000  0.000000  0.000000  -39.26177182718934  8.573111269769802  11.150161670895017  50.59020335017594  22.888526764208404  11.923628301489579  -45.908676648194394  43.634645754203845  22.781953638369593  22.36454336458282  120.000000
1.6217999999999997  0.000000  0.000000  0.000000  -39.22469903456418  8.70160496915473  11.915628547538917  50.50552462356873  22.918312373197217  12.115820197952521  -46.24429212459543  44.34726996470553  22.926999492618513  22.452576944467225  120.000000
1.6535999999999997  0.000000  0.000000  0.000000  -39.143333972461434  8.800094513601284  12.660615033974027  50.413473744177935  22.87992435174057  12.231008275088106  -46.53612325973262  44.93567463451667  23.146452297607418  22.504077680190644  120.000000
1.6853999999999998  0.000000  0.000000  0.000000  -39.03954215730788  8.862208782015994  13.380364797373401  50.33700971028747  22.78581482453363  12.267938571032943  -46.807397060673516  45.38602967630617  23.403929315429657  22.53492515967154  120.000000
1.7171999999999996  0.000000  0.000000  0.000000  -38.93606102067084  8.88921603789249  14.066000037424327  50.30176940408788  22.6356806126954  12.222676383907762  -47.068396275921096  45.687810751902774  23.675913739619688  22.555827788400787  120.000000
1.7489999999999997  0.000000  0.000000  0.000000  -38.85553094109709  8.872551216048294  14.705310160154886  50.3278287675862  22.444558429821836  12.09092378334867  -47.31715853957283  45.83105385863574  23.953746294647598  22.569894572948783  120.000000
1.7807999999999997  0.000000  0.000000  0.000000  -38.818189660581716  8.800901516625842  15.282039682573869  50.42733460488351  22.234556296801028  11.870463524885267  -47.539564453126886  45.80896644598379  24.238940750973548  22.57371732460878  120.000000
1.8125999999999998  0.000000  0.000000  0.000000  -38.83880859689311  8.666680134060345  15.777181659924725  50.60316687391645  22.025294074631713  11.562157239253203  -47.712623826444215  45.61769358425372  24.536249610138935  22.56049990629964  120.000000
1.8443999999999998  0.000000  0.000000  0.000000  -38.92283968309297  8.470189916499947  16.169987449363237  50.84761791444343  21.829489927039678  11.171831032676748  -47.809871225645885  45.25531084335581  24.845262822675167  22.522549053978054  120.000000
1.8761999999999996  0.000000  0.000000  0.000000  -39.064392624921794  8.22270893134809  16.438580617007748  51.14212156576185  21.650118366231844  10.712417862641335  -47.80565616387815  44.7223011669276  25.154989613661808  22.453723541016203  120.000000
1.9079999999999997  0.000000  0.000000  0.000000  -39.246026827285554  7.946065517407512  16.5607575979478  51.45848980816336  21.48064502431013  10.204319446540028  -47.67842824431877  44.02244886516205  25.44207868442335  22.35091245956013  120.000000
1.9397999999999997  0.000000  0.000000  0.000000  -39.441225335989  7.6695834772820985  16.51463506057798  51.76230633238521  21.306849792910374  9.673994603495203  -47.4121898155184  43.16392638535752  25.674438319572197  22.214304248656894  120.000000
1.9715999999999996  0.000000  0.000000  0.000000  -39.61871960143074  7.424408090315737  16.280086074105164  52.01803714699329  21.11044132590565  9.150891062876454  -46.99682283212755  42.159813998641916  25.817836982473626  22.046896746703123  120.000000
2.0033999999999996  0.000000  0.000000  0.000000  -39.7474975609911  7.237066120307146  15.841799737042397  52.19442578328004  20.87330002077453  8.66434805361873  -46.4279142964659  41.02814753725862  25.84362429046668  21.853582983132835  120.000000
2.0351999999999997  0.000000  0.000000  0.000000  -39.80151999251816  7.123744783307128  15.194059096951339  52.26970602509195  20.581551228743173  8.240160832605913  -45.70620013590508  39.79113561423088  25.734920043416498  21.640170239633342  120.000000
2.0669999999999997  0.000000  0.000000  0.000000  -39.76255510001314  7.08745774636363  14.344247114698627  52.23458677212612  20.228403907991886  7.897740845593827  -44.83794470632891  38.472775534635  25.49047691316456  21.411712702614324  120.000000
2.0987999999999998  0.000000  0.000000  0.000000  -39.62176161820607  7.118377488538111  13.312466767277709  52.09374618257068  19.813873055525406  7.646582043322975  -43.83542656629802  37.09482620951453  25.125313444830436  21.171431940277692  120.000000
2.1306  0.000000  0.000000  0.000000  -39.379181576838214  7.196836907926251  12.131390118841262  51.86356308531917  19.341355197317228  7.483732340142511  -42.71702386647621  35.67368681565696  24.66891865478475  20.91989024544578  120.000000
2.1624  0.000000  0.000000  0.000000  -39.04167335578779  7.298434767593403  10.845056240101151  51.5669569855232  18.81531940624129  7.394917326929513  -41.50625007199618  34.21968006258113  24.161631155446464  20.653892763690372  120.000000
2.1941999999999995  0.000000  0.000000  0.000000  -38.62183348954031  7.398360492422573  9.502941409710706  51.228350510531996  18.241692321694142  7.358230458778428  -40.22923629851643  32.737707942115115  23.651471411827764  20.367003942567752  120.000000
2.2259999999999995  0.000000  0.000000  0.000000  -38.13641047750652  7.4743061600879095  8.153350788567638  50.86955931502869  17.627302636809297  7.347622121044295  -38.91223395505307  31.22857157477585  23.1911612043597  20.050763695393925  120.000000
2.2577999999999996  0.000000  0.000000  0.000000  -37.60430405139675  7.508754786598772  6.839778659359905  50.50723961348358  16.97890636120061  7.336526039897232  -37.57973083395431  29.691103118892077  22.83524669634713  19.696071718589952  120.000000
2.2895999999999996  0.000000  0.000000  0.000000  -37.04487304513689  7.490339173530628  5.5984947590152405  50.15238906969578  16.30364411281149  7.301691533655698  -36.253031784073805  28.12496489882372  22.637383802184  19.295458090450403  120.000000
2.3213999999999997  0.000000  0.000000  0.000000  -36.476271178039944  7.413776512100974  4.45610699447247  49.81106457576742  15.609360718854017  7.225729995385439  -34.94954316041051  26.533403400710174  22.648343792714893  18.8453898166191  120.000000
2.3531999999999997  0.000000  0.000000  0.000000  -35.91435402072272  7.279249859901803  3.428287734079889  49.48555821756675  14.903694299973465  7.0983430906558125  -33.682626379437394  24.92514502824011  22.914406807422328  18.348340266358036  120.000000
2.385  0.000000  0.000000  0.000000  -35.371931851233235  7.091624466902884  2.5202966916835896  49.175473981053116  14.192941409353754  6.916253905181378  -32.46173013826436  23.315093857561024  23.47540158163772  17.8141620676594  120.000000
2.4167999999999994  0.000000  0.000000  0.000000  -34.858093685285596  6.85946483437845  1.7295899963250965  48.878449039006064  13.481723738021724  6.681985629575881  -31.292728100278698  21.722927594313784  24.36173419104296  17.2598412006897  120.000000
2.4485999999999994  0.000000  0.000000  0.000000  -34.377676384702724  6.59400217289459  1.0494945861093044  48.59131040991952  12.773982149169646  6.40200586496474  -30.179151594344965  20.16922071153686  25.589582289962113  16.707571798284317  120.000000
2.4803999999999995  0.000000  0.000000  0.000000  -33.930906915901225  6.3081512022943595  0.4730885354191375  48.31146904745345  12.075187626563457  6.085132852334773  -29.124513190421123  18.66973317327158  27.155353325175994  16.18162765709181  120.000000
2.5121999999999995  0.000000  0.000000  0.000000  -33.51358393431175  6.015618664488028  -0.003847381934464376  48.03891165986581  11.39474526099327  5.741393409414099  -28.13582165913805  17.229643885091306  29.030809355416217  15.70523853744793  120.000000
2.5439999999999996  0.000000  0.000000  0.000000  -33.11807608276937  5.729867078565362  -0.381469781393559  47.77729787798536  10.747601452038056  5.381415622901721  -27.227394421372335  15.839289964995197  31.161571961772847  15.297525012877934  120.000000
2.5757999999999996  0.000000  0.000000  0.000000  -32.73517512228665  5.463146857578694  -0.6572953819729653  47.53288189390672  10.15294278323721  5.015444520673174  -26.422452797950438  14.474931439259805  33.4731168980812  14.972411875540878  120.000000
2.6075999999999997  0.000000  0.000000  0.000000  -32.355731158996775  5.225548601283664  -0.830024693125443  47.309885899337935  9.629922833064862  4.651311379326598  -25.75114043529264  13.104803436279528  35.88483714109101  14.739355351822782  120.000000
2.6393999999999997  0.000000  0.000000  0.000000  -31.97202747493945  5.024179009931562  -0.904359731361063  47.10424869529734  9.19155019104336  4.29225645027775  -25.245156293696855  11.699412858007024  38.32810166111239  14.604331893219813  120.000000
2.6712  0.000000  0.000000  0.000000  -31.5781942163659  4.863122320440121  -0.894543678766478  46.899016191635546  8.839832051688695  3.9346532712326416  -24.930202169308185  10.241823373243404  40.762438182921045  14.571683958008732  120.000000
2.7029999999999994  0.000000  0.000000  0.000000  -31.168963769879383  4.743571826929317  -0.8242780010037064  46.66568169319589  8.564273421370872  3.5685808605673888  -24.818124643971945  8.735949352289012  43.18462365358815  14.64290617578267  120.000000
2.7347999999999995  0.000000  0.000000  0.000000  -30.737774601233806  4.665216798706285  -0.7207765232427591  46.372361776289274  8.345917224312958  3.181268851762351  -24.901518030962936  7.208939290025277  45.62738301185676  14.817994528977474  120.000000
2.7665999999999995  0.000000  0.000000  0.000000  -30.276437312017315  4.626344599839797  -0.6040540040997637  46.00046317072856  8.165637575592344  2.7631182177955718  -25.156007989072776  5.705151295045303  48.144545982029314  15.091675442534143  120.000000
2.7983999999999996  0.000000  0.000000  0.000000  -29.781462049888233  4.624892939703261  -0.47906525775994113  45.55383783931513  8.0105453881645  2.3150975128789346  -25.548583581224523  4.272792585762854  50.79089695244454  15.451722197622379  120.000000
2.8301999999999996  0.000000  0.000000  0.000000  -29.263152006964386  4.656158814286341  -0.33725385473306896  45.06103344786973  7.875088759714719  1.8480101739505541  -26.051407158041076  2.949410796551363  53.60135675093906  15.872722449962303  120.000000
2.8619999999999997  0.000000  0.000000  0.000000  -28.751607037082895  4.708912826794908  -0.16878247916183525  44.55831054040225  7.754458955412707  1.3755310948000545  -26.6514668658139  1.7550332513086182  56.580521269646106  16.31472148372189  120.000000
2.8937999999999997  0.000000  0.000000  0.000000  -28.280882469422295  4.775399012364115  0.02049534341001743  44.07986696302201  7.640763063291714  0.918769875072369  -27.34842790538047  0.6900480763054969  59.70740074596976  16.750501935673842  120.000000
2.9255999999999993  0.000000  0.000000  0.000000  -27.853134262684947  4.845657770012781  0.22618950150605277  43.6735761619033  7.530699825799366  0.5001340298902472  -28.15386554133759  -0.24949648439609354  62.93918826949031  17.17271340418454  120.000000
2.9573999999999994  0.000000  0.000000  0.000000  -27.449669699828686  4.908706095446935  0.46237742403283477  43.36884034039652  7.428371094530418  0.12890240380282486  -29.08903330736512  -1.050160350586686  66.2173557710873  17.58909315636145  120.000000
2.9891999999999994  0.000000  0.000000  0.000000  -27.071756912976415  4.97074767500211  0.7267805604573825  43.159363665057114  7.3362088775352055  -0.1914213174827485  -30.179409803801686  -1.6978758329618138  69.47734666485673  18.003103434488168  120.000000
3.0209999999999995  0.000000  0.000000  0.000000  -26.740161541062555  5.032823353656566  0.9915005618789542  43.02088898279796  7.250804457148961  -0.4664269911771545  -31.450752782698505  -2.2063507372871025  72.6560182621738  18.402605452677342  120.000000
